SplineFontDB: 3.2
FontName: knight
FullName: knight ico
FamilyName: knight
Weight: solid
Copyright: Copyright (c) 2022 knight ico (seyyedmortezarazavi76@gmail.com)\n\nThis Font Software is licensed under the SIL Open Font License, Version 1.1.\nThis license is copied below, and is also available with a FAQ at:\nhttp://scripts.sil.org/OFL
UComments: "2022-1-24: Created with FontForge (http://fontforge.org)"
Version: 0.1.0
DefaultBaseFilename: knight ico solid
ItalicAngle: 0
UnderlinePosition: -102.4
UnderlineWidth: 51.2
Ascent: 819
Descent: 205
InvalidEm: 0
sfntRevision: 0x00010000
LayerCount: 2
Layer: 0 0 "Back" 1
Layer: 1 0 "Fore" 0
XUID: [1021 666 1875860586 30718]
StyleMap: 0x0020
FSType: 0
OS2Version: 0
OS2_WeightWidthSlopeOnly: 0
OS2_UseTypoMetrics: 1
CreationTime: 1642985456
ModificationTime: 1643054504
PfmFamily: 17
TTFWeight: 700
TTFWidth: 7
LineGap: 92
VLineGap: 0
OS2TypoAscent: 0
OS2TypoAOffset: 1
OS2TypoDescent: 0
OS2TypoDOffset: 1
OS2TypoLinegap: 92
OS2WinAscent: 0
OS2WinAOffset: 1
OS2WinDescent: 0
OS2WinDOffset: 1
HheadAscent: 0
HheadAOffset: 1
HheadDescent: 0
HheadDOffset: 1
OS2Vendor: 'PfEd'
MarkAttachClasses: 1
DEI: 91125
LangName: 1033
Encoding: UnicodeFull
UnicodeInterp: none
NameList: AGL For New Fonts
DisplaySize: -72
AntiAlias: 1
FitToEm: 0
WinInfo: 0 16 5
BeginPrivate: 0
EndPrivate
TeXData: 1 0 0 346030 173015 115343 0 1048576 115343 783286 444596 497025 792723 393216 433062 380633 303038 157286 324010 404750 52429 2506097 1059062 262144
BeginChars: 1114113 64

StartChar: uniFFFF
Encoding: 65535 65535 0
Width: 1000
VWidth: 1000
Flags: H
LayerCount: 2
Fore
SplineSet
540 486 m 0
 440.796563868 543.599631468 919.656644856 501.819000117 921 354 c 0
 921 232.934248266 516 261 516 261 c 0
 379.181015205 261 338.392898679 351 255 351 c 0
 78.542276928 351 349.586666667 633 225 633 c 0
 331.933178909 633 483 614.069496623 483 459 c 0
 483 229.537649798 72 331.25980297 72 327 c 0
 72 197.101799997 237.140166591 129 336 129 c 0
 335.940447937 129 334.94669011 129.041463256 30 366 c 0
 24 429 l 1025
EndSplineSet
Validated: 35
EndChar

StartChar: uniE005
Encoding: 57349 57349 1
Width: 1024
Flags: HMW
LayerCount: 2
Back
SplineSet
987 261 m 6
 37 261 l 6
 19 261 0 276 0 298 c 2
 0 317 l 2
 0 336 18 354 37 354 c 2
 984 354 l 2
 1006 354 1021 336 1021 317 c 2
 1021 298 l 2
 1021 277 1005 261 987 261 c 6
EndSplineSet
Fore
SplineSet
987 261 m 6
 37 261 l 6
 19 261 0 276 0 298 c 2
 0 317 l 2
 0 336 18 354 37 354 c 2
 984 354 l 2
 1006 354 1021 336 1021 317 c 2
 1021 298 l 2
 1021 277 1005 261 987 261 c 6
EndSplineSet
Validated: 1
EndChar

StartChar: uniE006
Encoding: 57350 57350 2
Width: 1024
Flags: HW
LayerCount: 2
Fore
SplineSet
791 245 m 1
 791 240 791.621463857 235.490157328 791.621463857 230.664406785 c 0
 791.621463857 200.7720909 783.776027969 169.274059435 770 140 c 2
 506 -208 l 2
 503 -208 499 -211 496 -211 c 0
 490 -211 484 -208 481 -205 c 0
 478 -202 478 -198 478 -195 c 2
 478 -186 l 1
 478 214 l 2
 478 220 478 224 478 227 c 0
 478 233 481 236 481 239 c 2
 500 323 l 1
 494 323 484 320 478 320 c 0
 462 320 446 320 434 323 c 1
 450 245 l 2
 450 242 453 239 453 233 c 0
 453 227 453 223 453 220 c 2
 453 43 l 1
 453 43 453 37 450 34 c 0
 447 28 441 28 441 28 c 2
 432 25 422 31 419 40 c 0
 410 96 400 140 369 183 c 0
 347 211 329 229 307 248 c 0
 279 273 248 301 239 351 c 0
 236.326473133 365.852927039 234.976602916 379.470441205 234.976602916 391.9311832 c 0
 234.976602916 421.417533393 242.535287897 444.426463519 258 462 c 0
 280 484 307 487 332 487 c 0
 354 487 375 491 394 503 c 0
 413 519 429 567 441 645 c 2
 444 658 l 2
 453 720 459 767 459 801 c 2
 459 801 459 804 459 807 c 0
 462 810 465 813 465 813 c 2
 471 822 484 819 490 813 c 0
 493 807 518 779 546 748 c 0
 602 686 668 633 742 596 c 1
 742 596 l 1
 748 593 748 593 791 245 c 1
 791 245 l 1
382 301 m 0
 385 301 391 307 388 313 c 2
 379 351 l 2
 376 357 372 363 366 366 c 0
 335 382 311 403 292 428 c 0
 292 431 292 431 289 431 c 0
 286 431 282 428 282 425 c 0
 285 406 289 388 298 372 c 0
 310 350 326 338 360 313 c 2
 372 304 l 2
 375 301 379 301 382 301 c 0
540 313 m 2
 540 310 540 307 543 307 c 0
 546 301 553 301 559 304 c 0
 590 329 624 350 633 372 c 0
 642 388 649 406 649 425 c 0
 649 428 648 431 645 431 c 0
 642 434 639 434 636 431 c 0
 614 403 581 378 562 366 c 0
 556 363 549 357 549 351 c 2
 540 313 l 2
586 16 m 1
 590 22 l 2
 580 230 l 2
 580 233 577 236 577 236 c 2
 574 239 568 239 565 236 c 2
 552 227 l 2
 543 218 537 204 537 192 c 2
 537 -22 l 2
 537 -25 537 -28 540 -28 c 0
 543 -31 549 -31 552 -28 c 2
 586 16 l 1
658 109 m 1
 661 112 661 112 661 115 c 2
 649 285 l 2
 649 288 645 292 645 292 c 2
 642 295 636 295 633 292 c 2
 608 270 l 2
 605 270 605 267 605 264 c 2
 611 74 l 2
 611 71 611 71 614 68 c 0
 617 68 624 68 627 71 c 2
 658 109 l 1
 658 109 l 1
704 164 m 2
 716 183 723 204 726 220 c 2
 714 332 l 2
 714 335 711 338 711 338 c 2
 708 341 701 341 698 338 c 2
 676 323 l 2
 673 323 673 320 673 317 c 2
 686 161 l 2
 686 158 686 158 689 155 c 0
 692 155 698 155 701 158 c 2
 704 164 l 2
EndSplineSet
Validated: 5
EndChar

StartChar: uniE000
Encoding: 57344 57344 3
Width: 1024
Flags: HW
LayerCount: 2
Fore
SplineSet
968 664 m 2
 968 -50 l 2
 968 -103 925 -146 872 -146 c 2
 155 -146 l 2
 102 -146 59 -103 59 -50 c 2
 59 664 l 2
 59 717 102 760 155 760 c 2
 869 760 l 2
 925 760 968 717 968 664 c 2
EndSplineSet
Validated: 1
EndChar

StartChar: uniE001
Encoding: 57345 57345 4
Width: 1024
Flags: HW
LayerCount: 2
Fore
SplineSet
1012 351 m 2
 1028 323 1028 289 1012 261 c 2
 801 -99 l 2
 785 -127 754 -143 723 -143 c 2
 301 -143 l 2
 270 -143 239 -124 223 -99 c 2
 12 261 l 2
 -4 289 -4 323 12 351 c 2
 223 714 l 2
 239 742 270 757 301 757 c 2
 723 757 l 2
 754 757 785 739 801 714 c 2
 1012 351 l 2
EndSplineSet
Validated: 33
EndChar

StartChar: uniE002
Encoding: 57346 57346 5
Width: 1024
Flags: HW
LayerCount: 2
Fore
SplineSet
1012 -22 m 2
 1020.11857957 -35.3717781198 1023.78985458 -49.598807117 1023.78985458 -63.5102353876 c 0
 1023.78985458 -107.858821318 986.479186111 -149 937 -149 c 2
 87 -149 l 2
 37.1737941682 -149 1.45022002918 -107.279714575 1.45022002918 -62.5766656085 c 0
 1.45022002918 -48.9630489908 4.76326739672 -35.0728072833 12 -22 c 2
 438 720 l 2
 472 776 552 776 586 720 c 2
 1012 -22 l 2
EndSplineSet
Validated: 33
EndChar

StartChar: uniE003
Encoding: 57347 57347 6
Width: 1024
Flags: HW
LayerCount: 2
Fore
SplineSet
59 307 m 0
 59 557 262 760 512 760 c 0
 762 760 965 557 965 307 c 0
 965 57 762 -146 512 -146 c 0
 262 -146 59 57 59 307 c 0
EndSplineSet
Validated: 1
EndChar

StartChar: uniE004
Encoding: 57348 57348 7
Width: 1024
Flags: HW
LayerCount: 2
Fore
SplineSet
1024 819 m 5
 1024 -196 l 5
 1024 -205 l 1
 0 -205 l 1
 0 817 l 1
 0 819 l 1
 1024 819 l 5
EndSplineSet
Validated: 1
EndChar

StartChar: uniE020
Encoding: 57376 57376 8
Width: 1024
Flags: HW
LayerCount: 2
Fore
SplineSet
115 152 m 2
 366 403 l 1
 618 149 l 1
 366 -106 l 2
 341 -131 310 -143 276 -143 c 2
 186 -143 l 1
 78 -205 l 1
 16 -140 l 1
 78 -28 l 1
 78 62 l 2
 78 96 90 127 115 152 c 2
968 763 m 0
 1005 724 1023.5 674.25 1023.5 625 c 0
 1023.5 575.75 1005 527 968 490 c 2
 816 335 l 1
 841 310 l 2
 850.5 300.5 855.25 288.25 855.25 276 c 0
 855.25 263.75 850.5 251.5 841 242 c 2
 760 161 l 2
 750.5 151.5 738.25 146.75 726 146.75 c 0
 713.75 146.75 701.5 151.5 692 161 c 2
 372 484 l 2
 362.5 493.5 357.75 505.75 357.75 518 c 0
 357.75 530.25 362.5 542.5 372 552 c 2
 453 633 l 2
 462.5 642.5 474.75 647.25 487 647.25 c 0
 499.25 647.25 511.5 642.5 521 633 c 2
 549 608 l 1
 701 763 l 2
 736.5 800 784.75 818.5 833.375 818.5 c 0
 882 818.5 931 800 968 763 c 0
EndSplineSet
Validated: 1
EndChar

StartChar: uniE021
Encoding: 57377 57377 9
Width: 1024
Flags: HW
LayerCount: 2
Fore
SplineSet
335 199 m 2
 506 50 l 2
 509 44 509 37 509 31 c 0
 509 -121 407 -208 258 -208 c 0
 81 -208 6 -62 6 102 c 1
 25 90 93 34 115 34 c 0
 127 34 140 41 143 53 c 0
 183 162 254 193 335 199 c 2
909 819 m 0
 965 819 1018 776 1015 720 c 0
 1015 686 1003 655 987 627 c 0
 764 205 695 115 571 115 c 0
 555 115 544 118 528 121 c 2
 400 227 l 2
 388 252 382 276 382 304 c 0
 382 413 426 419 829 785 c 0
 851 807 878 819 909 819 c 0
EndSplineSet
Validated: 33
EndChar

StartChar: uniE022
Encoding: 57378 57378 10
Width: 1024
Flags: HW
LayerCount: 2
Fore
SplineSet
580 630 m 1
 832 375 l 1
 285 -177 l 1
 62 -202 l 2
 31 -205 6 -180 9 -149 c 2
 34 78 l 1
 580 630 l 1
987 667 m 2
 1024 630 1024 571 987 534 c 2
 875 422 l 1
 624 676 l 1
 735 788 l 2
 772 825 832 825 869 788 c 2
 987 667 l 2
EndSplineSet
Validated: 33
EndChar

StartChar: uniE023
Encoding: 57379 57379 11
Width: 1024
Flags: HW
LayerCount: 2
Fore
SplineSet
503 711 m 2
 670 540 l 1
 832 372 l 1
 444 -22 l 2
 345 -124 208 -192 59 -208 c 0
 57.3027810197 -208.164246998 55.6235467569 -208.244565314 53.9659075778 -208.244565314 c 0
 27.0041178929 -208.244565314 5.75543468589 -186.995882107 5.75543468589 -160.034092422 c 0
 5.75543468589 -158.376453243 5.8357530019 -156.69721898 6 -155 c 1
 6 -155 l 1
 25 -3 90 134 192 236 c 2
 490 540 l 1
 444 586 l 1
 242 382 l 2
 236 376 228.25 373 220.5 373 c 0
 212.75 373 205 376 199 382 c 2
 155 428 l 2
 149 434 146 442.75 146 451.5 c 0
 146 460.25 149 469 155 475 c 2
 391 711 l 2
 406.5 726.5 426.75 734.25 447 734.25 c 0
 467.25 734.25 487.5 726.5 503 711 c 2
990 670 m 2
 1008.5 651.5 1017.75 626.75 1017.75 602 c 0
 1017.75 577.25 1008.5 552.5 990 534 c 2
 878 422 l 1
 627 680 l 1
 739 791 l 2
 757.5 809.5 781.5 818.75 805.5 818.75 c 0
 829.5 818.75 853.5 809.5 872 791 c 2
 990 670 l 2
EndSplineSet
Validated: 1
EndChar

StartChar: uniE024
Encoding: 57380 57380 12
Width: 1024
Flags: HW
LayerCount: 2
Fore
SplineSet
0 -121 m 1
 127 12 l 1
 258 -115 l 1
 189 -183 l 1
 0 -121 l 1
236 338 m 2
 313 403 l 1
 639 78 l 1
 571 -3 l 2
 552 -25 525 -34 500 -25 c 2
 419 0 l 1
 323 -96 l 1
 143 87 l 1
 239 183 l 1
 214 264 l 2
 211 273 211 279 211 285 c 0
 211 307 220 326 236 338 c 2
993 642 m 2
 1033 605 1033 543 999 500 c 2
 680 121 l 1
 360 444 l 1
 732 766 l 2
 775 803 838 803 875 763 c 2
 993 642 l 2
EndSplineSet
Validated: 33
EndChar

StartChar: uniE025
Encoding: 57381 57381 13
Width: 1024
Flags: HW
LayerCount: 2
Fore
SplineSet
1018 819 m 1
 1015 766 993 553 909 348 c 1
 698 242 l 1
 860 242 l 1
 844 211 823 180 801 149 c 2
 512 50 l 1
 711 50 l 1
 643 -9 556 -50 450 -62 c 0
 369 -71 286 -78 202 -78 c 2
 90 -192 l 2
 71 -211 41 -211 22 -192 c 0
 3 -173 3 -143 22 -124 c 2
 531 391 l 2
 543 403 543 426 531 438 c 0
 519 450 499 450 487 438 c 2
 133 81 l 1
 136 137 140 189 146 242 c 0
 196 742 916 813 1018 819 c 1
EndSplineSet
Validated: 33
EndChar

StartChar: uniE026
Encoding: 57382 57382 14
Width: 1024
Flags: HW
LayerCount: 2
Fore
SplineSet
276 540 m 2
 574 630 l 1
 825 372 l 1
 742 68 l 2
 733 28 701 -7 661 -19 c 2
 109 -205 l 1
 81 -177 l 1
 379 124 l 2
 391 118 403 115 419 115 c 0
 472 115 515 158 515 211 c 0
 515 264 472 307 419 307 c 0
 366 307 323 264 323 211 c 0
 323 199 326 183 332 171 c 2
 34 -130 l 1
 6 -102 l 1
 189 456 l 2
 205 496 236 528 276 540 c 2
990 670 m 2
 1027 633 1027 571 993 534 c 2
 881 422 l 1
 627 680 l 1
 739 791 l 2
 776 828 835 828 872 791 c 2
 990 670 l 2
EndSplineSet
Validated: 33
EndChar

StartChar: uniE027
Encoding: 57383 57383 15
Width: 1024
Flags: HW
LayerCount: 2
Fore
SplineSet
711 577 m 2
 723 571 733 561 739 549 c 0
 761 518 760 499 732 403 c 1
 692 443 615 434 562 434 c 1
 565 533 574 561 630 586 c 2
 711 577 l 2
655 797 m 0
 729 847 801 806 844 732 c 1
 832 732 788 738 779 732 c 0
 773 729 773 723 773 717 c 0
 785 661 763 630 732 605 c 2
 621 621 l 2
 571 683 590 757 655 797 c 0
478 745 m 1
 406 745 l 1
 406 782 l 1
 475 819 l 1
 478 745 l 1
537 555 m 1
 531 434 l 1
 366 434 l 1
 354 555 l 1
 537 555 l 1
540 580 m 1
 351 580 l 1
 351 599 335 637 360 649 c 2
 391 664 l 1
 391 720 l 1
 496 720 l 1
 496 664 l 2
 502 661 531 645 534 642 c 0
 550 630 540 596 540 580 c 1
189 422 m 1
 137 596 l 1
 273 633 l 1
 332 434 l 1
 295 431 220 441 189 422 c 1
264 658 m 1
 130 618 l 1
 115 676 l 2
 109 698 121 717 140 723 c 2
 202 742 l 2
 224 748 242 736 248 717 c 2
 264 658 l 1
425 -164 m 2
 425 -180 432 -193 438 -205 c 1
 301 -205 l 2
 261 -205 226 -177 223 -137 c 2
 161 298 l 2
 152 345 189 388 239 388 c 2
 652 388 l 2
 699 388 735 345 729 298 c 2
 701 102 l 1
 512 102 l 2
 465 102 425 66 425 16 c 2
 425 -164 l 2
869 59 m 2
 894 59 912 41 912 16 c 2
 912 -164 l 2
 912 -189 894 -208 869 -208 c 2
 515 -208 l 2
 490 -208 472 -189 472 -164 c 2
 472 16 l 2
 472 41 490 59 515 59 c 2
 869 59 l 2
872 -146 m 2
 872 3 l 2
 872 15 862 25 850 25 c 2
 704 25 l 1
 704 -168 l 1
 850 -168 l 2
 862 -168 872 -158 872 -146 c 2
EndSplineSet
Validated: 33
EndChar

StartChar: uniE028
Encoding: 57384 57384 16
Width: 1024
Flags: HW
LayerCount: 2
Fore
SplineSet
996 211 m 2
 711 -74 l 1
 999 -74 l 2
 1015 -74 1024 -87 1024 -99 c 2
 1024 -180 l 2
 1024 -192 1011 -205 999 -205 c 2
 289 -205 l 2
 261 -205 239 -196 220 -177 c 2
 28 19 l 2
 -9 56 -9 118 28 155 c 2
 540 673 l 2
 577 710 639 710 676 673 c 2
 996 348 l 2
 1033 311 1033 248 996 211 c 2
391 338 m 1
 140 84 l 1
 301 -78 l 1
 534 -78 l 1
 667 59 l 1
 391 338 l 1
EndSplineSet
Validated: 33
EndChar

StartChar: uniE029
Encoding: 57385 57385 17
Width: 1024
Flags: HW
LayerCount: 2
Fore
SplineSet
701 530 m 2
 766 472 l 2
 766 469 766 469 766 466 c 0
 766 410 726 375 670 375 c 0
 602 375 574 431 574 493 c 1
 580 490 605 469 614 469 c 0
 620 469 624 469 627 475 c 0
 643 518 670 527 701 530 c 2
918 766 m 0
 940 766 959 751 953 729 c 0
 953 717 949 707 943 695 c 0
 859 534 832 500 785 500 c 0
 782 500 776 503 770 503 c 2
 723 543 l 2
 720 549 717 562 717 571 c 0
 717 611 732 614 887 754 c 0
 896 760 906 766 918 766 c 0
856 419 m 2
 856 435 863 453 875 465 c 2
 915 528 l 2
 921 540 937 533 937 521 c 2
 937 -16 l 2
 937 -66 897 -106 847 -106 c 2
 180 -106 l 2
 130 -106 90 -66 90 -16 c 2
 90 652 l 2
 90 702 130 742 180 742 c 2
 770 742 l 2
 782 742 788 726 779 720 c 2
 742 686 l 2
 723 674 705 664 683 664 c 2
 217 664 l 2
 189 664 164 639 164 611 c 2
 164 214 l 2
 164 183 189 158 220 158 c 2
 438 158 l 2
 454 158 469 165 478 174 c 2
 596 292 l 2
 618 314 651 314 673 292 c 2
 791 171 l 2
 803 162 816 155 832 155 c 2
 856 155 l 1
 856 419 l 2
313 416 m 0
 313 461 349 496 394 496 c 0
 439 496 475 461 475 416 c 0
 475 371 439 335 394 335 c 0
 349 335 313 371 313 416 c 0
EndSplineSet
Validated: 33
EndChar

StartChar: uniE02A
Encoding: 57386 57386 18
Width: 1024
Flags: HW
LayerCount: 2
Fore
SplineSet
571 776 m 0
 661 456 860 375 863 152 c 0
 863 -47 707 -205 515 -205 c 0
 323 -205 168 -43 168 152 c 0
 168 375 363 459 456 776 c 0
 475 835 555 835 571 776 c 0
512 -78 m 0
 531 -78 543 -63 543 -47 c 0
 543 -31 531 -16 512 -16 c 0
 425 -16 354 59 354 146 c 0
 354 162 342 177 323 177 c 0
 307 177 292 165 292 146 c 0
 292 22 391 -78 512 -78 c 0
EndSplineSet
Validated: 33
EndChar

StartChar: uniE030
Encoding: 57392 57392 19
Width: 1024
Flags: HW
LayerCount: 2
Fore
SplineSet
962 307 m 2
 996 307 1024 282 1024 248 c 2
 1024 -143 l 2
 1024 -177 996 -205 962 -205 c 2
 320 -205 l 2
 286 -205 258 -177 258 -143 c 2
 258 -28 l 1
 453 -28 l 2
 531 -28 593 34 593 112 c 2
 593 307 l 1
 962 307 l 2
425 53 m 2
 90 53 l 2
 40 53 3 93 3 140 c 2
 3 729 l 2
 3 779 43 816 90 816 c 2
 428 816 l 2
 478 816 515 776 515 729 c 2
 515 140 l 2
 515 90 475 53 425 53 c 2
1012 549 m 0
 1028 533 1027 509 1008 490 c 2
 922 403 l 2
 913 394 903 391 894 391 c 0
 885 391 872 397 866 403 c 2
 779 490 l 2
 763 506 763 530 779 546 c 0
 795 562 819 562 835 546 c 2
 853 528 l 1
 847 643 751 735 633 735 c 0
 611 735 593 754 593 776 c 0
 593 798 611 816 633 816 c 0
 794 816 928 689 934 528 c 1
 956 549 l 2
 972 565 996 565 1012 549 c 0
EndSplineSet
Validated: 33
EndChar

StartChar: uniE031
Encoding: 57393 57393 20
Width: 1024
Flags: HW
LayerCount: 2
Fore
SplineSet
1024 518 m 2
 1024 -93 l 2
 1024 -155 974 -202 915 -202 c 2
 109 -202 l 2
 47 -202 0 -152 0 -93 c 2
 0 707 l 2
 0 769 50 819 109 819 c 2
 720 819 l 2
 751 819 778 807 797 788 c 2
 993 596 l 2
 1012 574 1024 546 1024 518 c 2
723 655 m 2
 717 664 l 2
 711 670 704 673 698 673 c 2
 174 673 l 2
 158 673 146 661 146 645 c 2
 146 406 l 2
 146 390 158 379 174 379 c 2
 704 379 l 2
 720 379 732 390 732 406 c 2
 732 636 l 2
 732 645 729 652 723 655 c 2
658 87 m 0
 658 168 593 233 512 233 c 0
 431 233 366 168 366 87 c 0
 366 6 431 -59 512 -59 c 0
 593 -59 658 6 658 87 c 0
EndSplineSet
Validated: 1
EndChar

StartChar: uniE033
Encoding: 57395 57395 21
Width: 1024
Flags: HW
LayerCount: 2
Fore
SplineSet
975 543 m 2
 1003 543 1024 518 1024 490 c 2
 1024 121 l 2
 1024 93 1002 71 974 71 c 2
 884 71 l 1
 884 543 l 1
 975 543 l 2
140 543 m 1
 140 71 l 1
 50 71 l 2
 22 71 0 93 0 121 c 2
 0 490 l 2
 0 518 22 543 50 543 c 2
 140 543 l 1
748 608 m 2
 785 608 813 580 816 543 c 2
 816 68 l 2
 816 31 788 3 751 3 c 2
 276 3 l 2
 239 3 211 31 211 68 c 2
 211 543 l 2
 211 580 239 608 276 608 c 2
 748 608 l 2
304 552 m 2
 282 552 267 537 264 515 c 2
 264 233 l 2
 264 211 282 192 304 192 c 2
 462 192 l 2
 471 192 484 199 490 205 c 2
 574 289 l 2
 590 305 614 305 630 289 c 2
 714 205 l 2
 720 196 733 192 742 192 c 2
 760 192 l 1
 760 515 l 2
 760 537 745 552 723 552 c 2
 304 552 l 2
416 416 m 0
 416 447 441 472 472 472 c 0
 503 472 528 447 528 416 c 0
 528 385 503 360 472 360 c 0
 441 360 416 385 416 416 c 0
EndSplineSet
Validated: 33
EndChar

StartChar: uniE034
Encoding: 57396 57396 22
Width: 1024
Flags: HW
LayerCount: 2
Fore
SplineSet
825 313 m 2
 872 313 912 277 912 230 c 2
 912 -121 l 2
 912 -168 872 -208 825 -208 c 2
 199 -208 l 2
 149 -208 112 -168 112 -121 c 2
 112 227 l 2
 112 274 152 313 199 313 c 2
 242 313 l 1
 242 543 l 2
 242 695 363 819 512 819 c 0
 661 819 782 695 779 543 c 2
 779 484 l 2
 779 444 747 413 707 413 c 0
 667 413 636 444 636 484 c 2
 636 543 l 2
 636 614 577 673 509 673 c 0
 441 673 382 614 382 543 c 2
 382 313 l 1
 639 313 l 1
 782 313 l 1
 825 313 l 2
EndSplineSet
Validated: 33
EndChar

StartChar: uniE035
Encoding: 57397 57397 23
Width: 1024
Flags: HW
LayerCount: 2
Fore
SplineSet
825 313 m 2
 872 313 912 277 912 227 c 2
 912 -121 l 2
 912 -168 872 -208 825 -208 c 2
 199 -208 l 2
 149 -208 112 -168 112 -121 c 2
 112 227 l 2
 112 274 152 313 199 313 c 2
 242 313 l 1
 242 425 l 2
 242 574 363 698 512 698 c 0
 661 698 782 577 782 425 c 2
 782 425 782 341 782 313 c 1
 825 313 l 2
385 425 m 1
 382 425 l 1
 382 313 l 1
 639 313 l 1
 639 425 l 2
 639 496 580 555 512 555 c 0
 444 555 385 496 385 425 c 1
EndSplineSet
Validated: 1
EndChar

StartChar: uniE037
Encoding: 57399 57399 24
Width: 1024
Flags: HW
LayerCount: 2
Fore
SplineSet
891 596 m 1
 891 -109 l 2
 891 -162 847 -205 794 -205 c 2
 227 -205 l 2
 174 -205 130 -162 130 -109 c 2
 130 596 l 2
 130 649 174 692 227 692 c 2
 382 692 l 1
 382 763 438 819 509 819 c 0
 580 819 636 763 636 692 c 1
 794 692 l 2
 847 692 891 649 891 596 c 1
701 509 m 1
 704 509 l 1
 704 549 l 2
 704 555 698 562 692 562 c 2
 335 562 l 2
 329 562 323 555 323 549 c 2
 323 509 l 2
 323 503 329 496 335 496 c 2
 689 496 l 2
 695 496 701 503 701 509 c 1
512 739 m 0
 487 739 465 720 465 692 c 0
 465 664 487 645 512 645 c 0
 537 645 559 667 559 692 c 0
 559 717 537 739 512 739 c 0
EndSplineSet
Validated: 1
EndChar

StartChar: uniE038
Encoding: 57400 57400 25
Width: 1024
Flags: HW
LayerCount: 2
Fore
SplineSet
797 692 m 2
 847 692 891 649 891 596 c 2
 891 -109 l 2
 891 -162 847 -205 794 -205 c 2
 227 -205 l 2
 174 -205 130 -162 130 -109 c 2
 130 596 l 2
 130 649 174 692 227 692 c 2
 385 692 l 1
 385 763 441 819 512 819 c 0
 583 819 639 763 639 692 c 1
 797 692 l 2
751 276 m 2
 760 285 760 297 748 313 c 2
 692 369 l 2
 683 378 667 378 658 369 c 2
 450 158 l 1
 360 251 l 2
 351 260 335 260 326 251 c 2
 270 195 l 2
 261 186 261 170 270 161 c 2
 434 -6 l 2
 443 -15 460 -15 469 -6 c 2
 751 276 l 2
512 739 m 0
 487 739 465 720 465 692 c 0
 465 664 487 642 512 645 c 0
 537 645 559 667 559 692 c 0
 559 717 537 739 512 739 c 0
EndSplineSet
Validated: 33
EndChar

StartChar: uniE039
Encoding: 57401 57401 26
Width: 1024
Flags: HW
LayerCount: 2
Fore
SplineSet
797 692 m 2
 847 692 891 649 891 596 c 2
 891 -109 l 2
 891 -162 847 -205 794 -205 c 2
 227 -205 l 2
 174 -205 130 -162 130 -109 c 2
 130 596 l 2
 130 649 174 692 227 692 c 2
 385 692 l 1
 385 763 441 819 512 819 c 0
 583 819 639 763 639 692 c 1
 797 692 l 2
512 739 m 0
 487 739 465 720 465 692 c 0
 465 664 487 645 512 645 c 0
 537 645 559 667 559 692 c 0
 559 717 537 739 512 739 c 0
698 68 m 2
 586 180 l 1
 698 292 l 2
 710 308 710 329 698 341 c 2
 673 366 l 2
 661 378 636 378 624 366 c 2
 512 254 l 1
 400 366 l 2
 388 378 363 378 351 366 c 2
 326 341 l 2
 314 325 314 304 326 292 c 2
 438 180 l 1
 326 68 l 2
 314 52 314 31 326 19 c 2
 351 -6 l 2
 363 -18 388 -18 400 -6 c 2
 512 106 l 1
 624 -6 l 2
 636 -18 661 -18 673 -6 c 2
 698 19 l 2
 710 35 710 56 698 68 c 2
EndSplineSet
Validated: 33
EndChar

StartChar: uniE03A
Encoding: 57402 57402 27
Width: 1024
Flags: HW
LayerCount: 2
Fore
SplineSet
320 -12 m 1
 112 -12 l 2
 84 -12 65 9 65 34 c 2
 65 707 l 2
 65 735 87 754 112 754 c 2
 273 754 l 2
 295 791 335 819 385 819 c 0
 435 819 474 794 496 754 c 2
 658 754 l 2
 686 754 704 732 704 707 c 2
 704 565 l 1
 431 565 l 2
 369 565 320 515 320 453 c 2
 320 -12 l 1
335 692 m 0
 335 664 357 645 382 645 c 0
 407 645 428 667 428 692 c 0
 428 717 407 739 382 739 c 0
 357 739 335 717 335 692 c 0
959 242 m 1
 959 -158 l 2
 959 -186 937 -205 912 -205 c 2
 431 -205 l 2
 403 -205 385 -183 385 -158 c 2
 385 450 l 2
 385 478 406 496 431 496 c 2
 704 496 l 1
 704 292 l 2
 704 264 726 245 751 245 c 2
 959 245 l 1
 959 242 l 1
959 307 m 1
 766 307 l 1
 766 500 l 1
 779 500 l 2
 791 500 804 493 813 484 c 2
 943 354 l 2
 952 345 959 332 959 320 c 2
 959 307 l 1
EndSplineSet
Validated: 1
EndChar

StartChar: uniE040
Encoding: 57408 57408 28
Width: 1024
Flags: HW
LayerCount: 2
Fore
SplineSet
701 -40 m 2
 555 -189 l 2
 530 -214 490 -214 465 -189 c 2
 320 -40 l 2
 301 -21 301 9 320 28 c 2
 341 50 l 2
 360 69 391 69 410 50 c 2
 456 -3 l 1
 456 248 l 1
 208 248 l 1
 261 202 l 2
 280 183 280 152 261 133 c 2
 239 112 l 2
 220 93 190 93 171 112 c 2
 25 261 l 2
 0 286 0 326 25 351 c 2
 171 500 l 2
 190 519 220 519 239 500 c 2
 261 478 l 2
 280 459 280 429 261 410 c 2
 208 363 l 1
 456 363 l 1
 456 614 l 1
 410 562 l 2
 391 543 360 543 341 562 c 2
 323 583 l 2
 304 602 304 633 323 652 c 2
 469 801 l 2
 494 826 534 826 559 801 c 2
 704 652 l 2
 723 633 723 602 704 583 c 2
 683 562 l 2
 664 543 633 543 614 562 c 2
 568 614 l 1
 568 363 l 1
 816 363 l 1
 763 410 l 2
 744 429 744 459 763 478 c 2
 785 500 l 2
 804 519 834 519 853 500 c 2
 999 351 l 2
 1024 326 1024 286 999 261 c 2
 853 112 l 2
 834 93 804 93 785 112 c 2
 763 133 l 2
 744 152 744 183 763 202 c 2
 816 248 l 1
 568 248 l 1
 568 -3 l 1
 614 50 l 2
 633 69 664 69 683 50 c 2
 701 28 l 2
 720 9 720 -21 701 -40 c 2
EndSplineSet
Validated: 33
EndChar

StartChar: uniE041
Encoding: 57409 57409 29
Width: 1024
Flags: HW
LayerCount: 2
Fore
SplineSet
531 -205 m 2
 493 -205 l 2
 474 -205 456 -190 456 -168 c 2
 456 618 l 1
 410 565 l 2
 391 546 360 546 341 565 c 2
 320 586 l 2
 301 605 301 636 320 655 c 2
 469 801 l 2
 494 826 534 826 559 801 c 2
 704 655 l 2
 723 636 723 605 704 586 c 2
 683 565 l 2
 664 546 633 546 614 565 c 2
 568 618 l 1
 568 -168 l 2
 568 -187 553 -205 531 -205 c 2
EndSplineSet
Validated: 33
EndChar

StartChar: uniE044
Encoding: 57412 57412 30
Width: 1024
Flags: HW
LayerCount: 2
Fore
SplineSet
1024 323 m 2
 1024 282 l 2
 1024 263 1009 245 987 245 c 2
 202 245 l 1
 254 199 l 2
 273 180 273 149 254 130 c 2
 233 109 l 2
 214 90 183 90 164 109 c 2
 19 258 l 2
 -6 283 -6 323 19 348 c 2
 164 496 l 2
 183 515 214 515 233 496 c 2
 254 475 l 2
 273 456 273 425 254 406 c 2
 202 360 l 1
 987 360 l 2
 1006 360 1024 345 1024 323 c 2
EndSplineSet
Validated: 33
EndChar

StartChar: uniE045
Encoding: 57413 57413 31
Width: 1024
Flags: HW
LayerCount: 2
Fore
SplineSet
19 261 m 2
 -6 286 -6 326 19 351 c 2
 369 701 l 2
 394 726 431 726 456 701 c 2
 515 642 l 2
 540 620 540 580 515 555 c 2
 267 304 l 1
 515 53 l 2
 540 31 540 -9 515 -34 c 2
 456 -93 l 2
 431 -118 394 -118 369 -93 c 2
 19 261 l 2
512 351 m 2
 863 701 l 2
 888 726 925 726 950 701 c 2
 1008 642 l 2
 1033 620 1033 580 1008 555 c 2
 760 304 l 1
 1008 53 l 2
 1033 31 1033 -9 1008 -34 c 2
 950 -93 l 2
 925 -118 888 -118 863 -93 c 2
 512 261 l 2
 487 286 487 326 512 351 c 2
EndSplineSet
Validated: 33
EndChar

StartChar: uniE046
Encoding: 57414 57414 32
Width: 1024
Flags: HW
LayerCount: 2
Fore
SplineSet
1005 261 m 2
 658 -93 l 2
 633 -118 596 -118 571 -93 c 2
 512 -34 l 2
 487 -9 487 31 512 53 c 2
 760 304 l 1
 512 555 l 2
 487 580 487 620 512 642 c 2
 571 701 l 2
 596 726 633 726 658 701 c 2
 1008 348 l 2
 1030 326 1030 286 1005 261 c 2
512 351 m 2
 537 326 537 286 512 261 c 2
 161 -93 l 2
 136 -118 99 -118 74 -93 c 2
 16 -34 l 2
 -9 -9 -9 31 16 53 c 2
 264 304 l 1
 16 555 l 2
 -9 580 -9 620 16 642 c 2
 74 701 l 2
 99 726 136 726 161 701 c 2
 512 351 l 2
EndSplineSet
Validated: 33
EndChar

StartChar: uniE047
Encoding: 57415 57415 33
Width: 1024
Flags: HW
LayerCount: 2
Fore
SplineSet
264 351 m 2
 614 711 l 2
 639 736 676 736 701 711 c 2
 760 652 l 2
 785 627 785 587 760 562 c 2
 512 307 l 1
 760 53 l 2
 785 28 785 -12 760 -37 c 2
 701 -96 l 2
 676 -121 639 -121 614 -96 c 2
 264 261 l 2
 239 286 239 326 264 351 c 2
EndSplineSet
Validated: 33
EndChar

StartChar: uniE048
Encoding: 57416 57416 34
Width: 1024
Flags: HW
LayerCount: 2
Fore
SplineSet
760 351 m 2
 785 326 785 286 760 261 c 2
 410 -96 l 2
 385 -121 348 -121 323 -96 c 2
 264 -37 l 2
 239 -12 239 28 264 53 c 2
 512 307 l 1
 264 562 l 2
 239 587 239 627 264 652 c 2
 323 711 l 2
 348 736 385 736 410 711 c 2
 760 351 l 2
EndSplineSet
Validated: 33
EndChar

StartChar: uniE050
Encoding: 57424 57424 35
Width: 1024
Flags: HW
LayerCount: 2
Fore
SplineSet
711 161 m 2
 683 161 658 137 658 106 c 2
 658 -205 l 1
 62 -205 l 2
 31 -205 6 -180 6 -152 c 2
 6 763 l 2
 6 794 31 819 62 819 c 2
 965 819 l 2
 993 819 1018 794 1018 763 c 2
 1018 161 l 1
 711 161 l 2
1002 34 m 2
 782 -189 l 2
 773 -198 761 -205 745 -205 c 2
 729 -205 l 1
 729 84 l 1
 1018 84 l 1
 1018 71 l 2
 1018 59 1011 43 1002 34 c 2
EndSplineSet
Validated: 1
EndChar

StartChar: uniE051
Encoding: 57425 57425 36
Width: 1024
Flags: HW
LayerCount: 2
Fore
SplineSet
31 521 m 2
 0 537 0 586 31 602 c 2
 490 813 l 2
 496 816 506 819 512 819 c 0
 518 819 528 816 534 813 c 2
 993 602 l 2
 1024 586 1024 537 993 521 c 2
 534 310 l 2
 518 304 502 304 490 310 c 2
 31 521 l 2
993 344 m 2
 1024 332 1024 283 993 267 c 2
 534 56 l 2
 518 50 502 50 490 56 c 2
 31 267 l 2
 0 283 0 332 31 344 c 2
 146 397 l 1
 465 251 l 2
 481 245 496 242 512 242 c 0
 528 242 543 245 559 251 c 2
 878 397 l 1
 993 344 l 2
993 90 m 2
 1024 74 1024 25 993 9 c 2
 534 -202 l 2
 518 -208 502 -208 490 -202 c 2
 31 9 l 2
 0 25 0 74 31 90 c 2
 146 143 l 1
 465 -3 l 2
 481 -9 496 -12 512 -12 c 0
 528 -12 543 -9 559 -3 c 2
 878 143 l 1
 993 90 l 2
EndSplineSet
Validated: 33
EndChar

StartChar: uniE042
Encoding: 57410 57410 37
Width: 1024
Flags: HW
LayerCount: 2
Fore
SplineSet
0 289 m 2
 0 323 l 2
 0 345 18 363 37 363 c 2
 822 363 l 1
 770 410 l 2
 751 429 751 459 770 478 c 2
 791 503 l 2
 810 522 841 522 860 503 c 2
 1005 354 l 2
 1030 329 1030 289 1005 264 c 2
 860 115 l 2
 841 96 810 96 791 115 c 2
 770 137 l 2
 751 156 751 186 770 205 c 2
 822 251 l 1
 37 251 l 2
 18 251 0 267 0 289 c 2
EndSplineSet
Validated: 33
EndChar

StartChar: uniE043
Encoding: 57411 57411 38
Width: 1024
Flags: HW
LayerCount: 2
Fore
SplineSet
493 819 m 1
 493 816 l 1
 531 816 l 2
 550 816 568 801 568 779 c 2
 568 -6 l 1
 614 47 l 2
 623.5 56.5 636 61.25 648.5 61.25 c 0
 661 61.25 673.5 56.5 683 47 c 2
 707 28 l 2
 716.5 18.5 721.25 6.25 721.25 -6 c 0
 721.25 -18.25 716.5 -30.5 707 -40 c 2
 559 -186 l 2
 546.5 -198.5 530.25 -204.75 514 -204.75 c 0
 497.75 -204.75 481.5 -198.5 469 -186 c 2
 320 -40 l 2
 310.5 -30.5 305.75 -18.25 305.75 -6 c 0
 305.75 6.25 310.5 18.5 320 28 c 2
 341 50 l 2
 350.5 59.5 363 64.25 375.5 64.25 c 0
 388 64.25 400.5 59.5 410 50 c 2
 456 -3 l 1
 456 782 l 2
 456 801 471 819 493 819 c 1
EndSplineSet
Validated: 1
EndChar

StartChar: uniE049
Encoding: 57417 57417 39
Width: 1024
Flags: HW
LayerCount: 2
Fore
SplineSet
469 555 m 2
 494 580 534 580 559 555 c 2
 915 205 l 2
 940 180 940 143 915 118 c 2
 856 59 l 2
 831 34 791 34 766 59 c 2
 512 307 l 1
 258 59 l 2
 233 34 193 34 168 59 c 2
 109 118 l 2
 84 143 84 180 109 205 c 2
 469 555 l 2
EndSplineSet
Validated: 33
EndChar

StartChar: uniE04A
Encoding: 57418 57418 40
Width: 1024
Flags: HW
LayerCount: 2
Fore
SplineSet
555 56 m 2
 530 31 490 31 465 56 c 2
 112 410 l 2
 87 435 87 471 112 496 c 2
 171 555 l 2
 196 580 236 580 261 555 c 2
 515 307 l 1
 770 555 l 2
 795 580 835 580 860 555 c 2
 918 496 l 2
 943 471 943 435 918 410 c 2
 555 56 l 2
EndSplineSet
Validated: 33
EndChar

StartChar: uniE054
Encoding: 57428 57428 41
Width: 1024
Flags: HW
LayerCount: 2
Fore
SplineSet
512 -205 m 0
 391 -205 279 -161 189 -90 c 0
 167 -74 167 -41 186 -19 c 2
 208 3 l 2
 227 22 254 22 273 6 c 0
 338 -47 419 -74 509 -74 c 0
 720 -74 887 96 887 304 c 0
 887 515 717 683 509 683 c 0
 410 683 316 642 248 580 c 1
 354 475 l 2
 376 453 360 419 329 419 c 2
 34 419 l 2
 15 419 0 434 0 453 c 2
 0 754 l 2
 0 782 34 798 56 779 c 2
 158 676 l 1
 251 763 375 819 512 819 c 0
 794 819 1024 589 1024 307 c 0
 1024 25 794 -205 512 -205 c 0
580 137 m 2
 444 242 l 1
 444 521 l 2
 447 549 468 571 496 571 c 2
 528 571 l 2
 556 571 577 549 577 521 c 2
 577 307 l 1
 661 242 l 2
 683 226 686 196 670 174 c 2
 652 146 l 2
 633 124 602 118 580 137 c 2
EndSplineSet
Validated: 33
EndChar

StartChar: uniE055
Encoding: 57429 57429 42
Width: 1024
Flags: HW
LayerCount: 2
Fore
SplineSet
512 -205 m 0
 391 -205 279 -161 189 -90 c 0
 177.597020869 -81.7069242681 172.104402331 -68.8467517134 172.104402331 -55.3184082004 c 0
 172.104402331 -42.7462429028 176.848027432 -29.5970208686 186 -19 c 2
 208 3 l 2
 217.90789343 12.9078934303 229.991218489 17.6491367434 241.981138888 17.6491367434 c 0
 252.983844437 17.6491367434 263.90789343 13.6565107955 273 6 c 0
 338 -47 419 -74 509 -74 c 0
 720 -74 887 96 887 304 c 0
 887 515 717 683 509 683 c 0
 410 683 316 642 248 580 c 1
 354 475 l 2
 361.052639801 467.947360199 364.200094333 459.661503996 364.200094333 451.657892868 c 0
 364.200094333 434.695044659 350.062189371 419 329 419 c 2
 34 419 l 2
 15 419 0 434 0 453 c 2
 0 754 l 2
 0 773.565106759 16.6007342924 787.271130827 34.1083201242 787.271130827 c 0
 41.6561765814 787.271130827 49.3725838824 784.723677556 56 779 c 2
 158 676 l 1
 251 763 375 819 512 819 c 0
 794 819 1024 589 1024 307 c 0
 1024 25 794 -205 512 -205 c 0
EndSplineSet
Validated: 1
EndChar

StartChar: uniE056
Encoding: 57430 57430 43
Width: 1024
Flags: HW
LayerCount: 2
Fore
SplineSet
0 307 m 0
 0 589 230 819 512 819 c 0
 649 819 773 766 866 676 c 1
 968 779 l 2
 990 801 1024 785 1024 754 c 2
 1024 453 l 2
 1024 434 1009 419 990 419 c 2
 689 419 l 2
 661 419 645 453 664 475 c 2
 770 580 l 1
 702 645 611 683 509 683 c 0
 301 686 133 515 133 307 c 0
 133 96 304 -71 512 -71 c 0
 602 -71 683 -41 748 9 c 0
 767 25 794 22 813 6 c 2
 838 -19 l 2
 860 -41 857 -74 835 -93 c 0
 745 -164 633 -205 512 -205 c 0
 230 -205 0 25 0 307 c 0
EndSplineSet
Validated: 33
EndChar

StartChar: uniE057
Encoding: 57431 57431 44
Width: 1024
Flags: HW
LayerCount: 2
Fore
SplineSet
512 459 m 1
 745 689 l 2
 776 717 822 717 850 689 c 2
 903 636 l 2
 931 608 931 562 903 534 c 2
 670 304 l 1
 903 74 l 2
 931 46 931 0 903 -28 c 2
 850 -81 l 2
 819 -109 773 -109 745 -81 c 2
 512 149 l 1
 279 -81 l 2
 248 -109 202 -109 174 -81 c 2
 121 -28 l 2
 93 0 93 46 121 74 c 2
 354 307 l 1
 121 537 l 2
 93 565 93 611 121 639 c 2
 174 692 l 2
 202 720 248 720 279 692 c 2
 512 459 l 1
EndSplineSet
Validated: 33
EndChar

StartChar: uniE058
Encoding: 57432 57432 45
Width: 1024
Flags: HW
LayerCount: 2
Fore
SplineSet
621 416 m 1
 950 413 l 2
 990 413 1024 378 1024 338 c 2
 1024 264 l 2
 1024 224 993 192 953 192 c 2
 624 195 l 1
 627 -133 l 2
 627 -173 595 -205 555 -205 c 2
 481 -205 l 2
 441 -205 406 -170 406 -130 c 2
 403 199 l 1
 74 199 l 2
 34 199 0 233 0 273 c 2
 0 348 l 2
 0 388 31 419 71 419 c 2
 400 416 l 1
 397 748 l 2
 397 788 429 819 469 819 c 2
 543 819 l 2
 583 819 618 785 618 745 c 2
 621 416 l 1
EndSplineSet
Validated: 1
EndChar

StartChar: uniE060
Encoding: 57440 57440 46
Width: 1024
Flags: HW
LayerCount: 2
Fore
SplineSet
968 329 m 0
 971 323 974 313 977 304 c 0
 977 295 974 285 971 279 c 0
 884 105 714 -9 515 -9 c 0
 316 -9 146 108 59 279 c 0
 56 288 53 295 53 304 c 0
 53 313 56 323 59 329 c 0
 146 503 313 618 512 618 c 0
 711 618 881 500 968 329 c 0
512 71 m 1
 512 71 l 1
 639 71 745 177 742 307 c 1
 742 307 l 1
 742 434 639 540 512 540 c 0
 385 540 282 431 282 304 c 0
 282 177 385 71 512 71 c 1
512 462 m 1
 512 462 515 462 512 462 c 1
 599 462 667 394 661 307 c 0
 661 220 593 152 509 152 c 0
 425 152 357 220 357 307 c 0
 357 319 360 336 363 348 c 1
 375 339 394 332 410 332 c 0
 453 332 487 367 487 410 c 0
 487 429 481 444 472 456 c 1
 484 459 496 462 512 462 c 1
EndSplineSet
Validated: 37
EndChar

StartChar: uniE061
Encoding: 57441 57441 47
Width: 1024
Flags: HW
LayerCount: 2
Fore
SplineSet
1015 -22 m 2
 1021 -25 1024 -35 1024 -47 c 0
 1024 -53 1021 -59 1018 -62 c 2
 987 -102 l 2
 981 -108 974 -112 965 -112 c 0
 959 -112 953 -109 950 -106 c 2
 9 633 l 2
 3 639 0 646 0 655 c 0
 0 661 3 667 3 670 c 2
 34 711 l 2
 40 717 47 720 56 720 c 0
 62 720 68 720 71 717 c 2
 276 559 l 2
 347 599 428 621 512 621 c 0
 711 621 881 503 968 332 c 0
 971 323 974 316 974 307 c 0
 974 298 971 288 968 282 c 0
 934 220 891 165 838 118 c 1
 1015 -22 l 2
512 74 m 0
 528 74 540 74 552 74 c 2
 636 9 l 1
 596 0 555 -6 512 -6 c 0
 313 -6 143 111 56 282 c 0
 53 291 50 298 50 307 c 0
 50 316 53 326 56 332 c 0
 72 363 93 394 115 422 c 2
 282 292 l 2
 291 171 391 74 512 74 c 0
720 208 m 1
 736 239 742 278 742 315 c 1
 742 307 l 1
 742 434 639 540 512 540 c 1
 512 540 l 1
 456 540 406 518 366 490 c 1
 484 397 l 2
 487 400 487 407 487 413 c 0
 487 432 481 447 472 459 c 1
 488 462 499 465 515 465 c 0
 599 465 667 402 667 318 c 0
 667 315 667 307 667 307 c 2
 667 288 664 274 658 258 c 2
 720 208 l 1
EndSplineSet
Validated: 5
EndChar

StartChar: uniE064
Encoding: 57444 57444 48
Width: 1024
Flags: HW
LayerCount: 2
Fore
SplineSet
242 621 m 1
 627 236 l 1
 686 177 l 1
 481 177 l 2
 444 177 410 162 385 137 c 2
 239 -9 l 1
 239 621 l 1025
174 819 m 1
 174 819 l 1
 183 819 193 816 199 810 c 2
 701 307 l 1
 875 133 l 2
 897 111 881 74 850 74 c 2
 484 74 l 2
 475 74 465 71 459 65 c 2
 199 -195 l 2
 190 -201 183 -205 174 -205 c 0
 155 -205 140 -193 140 -171 c 2
 140 785 l 2
 140 804 158 819 174 819 c 1
EndSplineSet
Validated: 35
EndChar

StartChar: uniE065
Encoding: 57445 57445 49
Width: 1024
Flags: HW
LayerCount: 2
Fore
SplineSet
239 621 m 1
 239 -9 l 1
 385 137 l 2
 410 162 444 177 481 177 c 2
 686 177 l 1
 627 236 l 1
 239 621 l 1
173 819 m 1
 174 819 l 1
 183 819 193 816 199 810 c 2
 701 307 l 1
 875 133 l 2
 897 111 881 74 850 74 c 2
 484 74 l 2
 475 74 465 71 459 65 c 2
 199 -195 l 2
 191 -203 180 -205 174 -205 c 0
 155 -205 140 -194 140 -171 c 2
 140 785 l 2
 140 804 156 819 173 819 c 1
EndSplineSet
Validated: 33
EndChar

StartChar: uniE070
Encoding: 57456 57456 50
Width: 1024
Flags: HW
LayerCount: 2
Fore
SplineSet
509 819 m 0
 789 819 1015 590 1015 307 c 0
 1015 24 789 -205 509 -205 c 0
 229 -205 3 24 3 307 c 0
 3 590 229 819 509 819 c 0
748 102 m 0
 751 105 756 115 752 122 c 4
 750 126 741 137 739 140 c 2
 695 202 l 2
 686 214 667 217 658 205 c 2
 658 205 602 146 524 146 c 0
 425 146 372 229 372 310 c 0
 372 400 431 469 524 469 c 0
 598 469 652 419 652 419 c 2
 664 410 680 413 689 425 c 2
 735 496 l 2
 737 500 739 504 739 509 c 0
 739 515 735 521 732 524 c 0
 729 527 658 605 521 605 c 0
 357 605 230 478 230 310 c 0
 230 139 350 9 524 9 c 0
 667 9 745 99 748 102 c 0
EndSplineSet
Validated: 33
EndChar

StartChar: uniE071
Encoding: 57457 57457 51
Width: 1024
Flags: HW
LayerCount: 2
Fore
SplineSet
512 819 m 4
 795 819 1015 636 1015 356 c 0
 1015 201 930 53 707 53 c 0
 648 53 584 53 565 124 c 1
 531 74 469 43 413 43 c 0
 292 43 217 128 217 261 c 0
 217 447 348 574 500 574 c 0
 537 574 590 568 621 531 c 1
 621 531 l 1
 624 547 633 555 649 555 c 2
 742 555 l 2
 770 555 794 527 788 496 c 2
 742 245 l 2
 736 211 736 183 770 183 c 0
 844 192 887 276 887 357 c 0
 887 568 717 686 512 686 c 0
 304 686 137 515 137 307 c 0
 137 99 304 -71 512 -71 c 0
 583 -71 655 -52 714 -12 c 0
 736 4 763 -3 779 -22 c 2
 801 -47 l 2
 820 -72 813 -105 788 -121 c 0
 707 -177 611 -205 512 -205 c 0
 233 -205 6 25 6 307 c 0
 6 589 232 819 512 819 c 4
469 189 m 0
 519 189 586 248 583 338 c 0
 583 391 559 422 512 422 c 0
 456 422 394 366 394 273 c 0
 394 220 422 189 469 189 c 0
EndSplineSet
Validated: 37
EndChar

StartChar: uniE073
Encoding: 57459 57459 52
Width: 1024
Flags: HW
LayerCount: 2
Fore
SplineSet
922 754 m 2
 941 754 956 742 956 723 c 2
 956 658 l 2
 956 642 944 627 925 627 c 2
 102 627 l 2
 86 627 71 639 71 658 c 2
 71 723 l 2
 71 739 83 754 102 754 c 2
 335 754 l 1
 354 791 l 2
 363 810 378 819 397 819 c 1
 397 819 l 1
 624 819 l 1
 624 819 l 1
 643 819 661 807 667 791 c 2
 686 754 l 1
 922 754 l 2
174 -115 m 2
 133 565 l 1
 884 565 l 1
 844 -115 l 2
 841 -165 801 -205 751 -205 c 2
 267 -205 l 2
 217 -205 177 -165 174 -115 c 2
EndSplineSet
Validated: 5
EndChar

StartChar: uniE074
Encoding: 57460 57460 53
Width: 1024
Flags: HW
LayerCount: 2
Fore
SplineSet
792 162 m 2
 581 162 l 1
 692 -112 l 2
 693.484692283 -116.45407685 694.234614175 -120.969384567 694.234614175 -125.37925666 c 0
 694.234614175 -138.790742469 687.298474436 -151.227038425 673 -158 c 2
 577 -202 l 2
 571.951956183 -204.39117865 566.762733715 -205.511749448 561.75116134 -205.511749448 c 0
 547.900006176 -205.511749448 535.4058809 -196.951956183 531 -183 c 2
 425 74 l 1
 254 -102 l 2
 246.777523866 -110.207359243 237.938389835 -113.780299179 229.322495482 -113.780299179 c 0
 211.693972789 -113.780299179 195 -98.8228745388 195 -78 c 2
 195 782 l 2
 195 804.553202699 212.600240554 819.18629715 229.99671478 819.18629715 c 0
 238.826233002 819.18629715 247.603260332 815.416762721 254 807 c 2
 816 223 l 2
 823.211347846 215.788652154 826.447218632 206.750733768 826.447218632 197.858528236 c 0
 826.447218632 179.622861713 812.838555308 162 792 162 c 2
EndSplineSet
Validated: 1
EndChar

StartChar: zero
Encoding: 48 48 54
Width: 1024
Flags: H
LayerCount: 2
Fore
SplineSet
512 -205 m 0
 446.8359375 -205 390.981445312 -195.690429688 338.23046875 -173.969726562 c 0
 285.478515625 -152.248046875 245.139648438 -118.115234375 217.211914062 -68.466796875 c 0
 186.181640625 -18.818359375 170.666992188 43.2421875 170.666992188 123.920898438 c 2
 170.666992188 490.079101562 l 2
 170.666992188 570.7578125 186.181640625 632.818359375 217.211914062 682.466796875 c 0
 248.2421875 732.115234375 288.58203125 766.248046875 338.23046875 787.969726562 c 0
 390.981445312 809.690429688 446.8359375 819 512 819 c 0
 577.1640625 819 633.018554688 809.690429688 685.76953125 787.969726562 c 0
 738.521484375 766.248046875 778.860351562 732.115234375 809.890625 682.466796875 c 0
 840.920898438 632.818359375 856.436523438 570.7578125 856.436523438 490.079101562 c 2
 856.436523438 120.818359375 l 2
 856.436523438 40.1396484375 840.920898438 -21.9208984375 809.890625 -71.5693359375 c 0
 778.860351562 -121.217773438 738.521484375 -155.3515625 685.76953125 -177.072265625 c 0
 633.018554688 -195.690429688 574.060546875 -205 512 -205 c 0
512 -15.71484375 m 0
 552.33984375 -15.71484375 580.266601562 -3.302734375 605.090820312 18.41796875 c 0
 626.8125 40.1396484375 639.224609375 77.3759765625 639.224609375 123.920898438 c 2
 639.224609375 490.079101562 l 2
 639.224609375 539.727539062 626.8125 573.860351562 605.090820312 595.58203125 c 0
 583.370117188 617.302734375 552.33984375 629.71484375 512 629.71484375 c 0
 471.66015625 629.71484375 443.733398438 617.302734375 422.01171875 595.58203125 c 0
 400.291015625 573.860351562 387.87890625 536.624023438 387.87890625 490.079101562 c 2
 387.87890625 120.818359375 l 2
 387.87890625 71.169921875 400.291015625 37.0361328125 422.01171875 15.3154296875 c 0
 440.629882812 -6.40625 471.66015625 -15.71484375 512 -15.71484375 c 0
EndSplineSet
EndChar

StartChar: one
Encoding: 49 49 55
Width: 1024
Flags: H
LayerCount: 2
Fore
SplineSet
490.278320312 -205 m 0
 462.3515625 -205 437.52734375 -198.793945312 415.805664062 -189.484375 c 0
 394.084960938 -177.072265625 381.672851562 -161.557617188 381.672851562 -139.8359375 c 2
 381.672851562 570.7578125 l 1
 341.333007812 545.93359375 l 2
 332.024414062 542.830078125 325.818359375 539.727539062 319.612304688 539.727539062 c 0
 316.508789062 536.624023438 310.302734375 536.624023438 304.096679688 536.624023438 c 0
 282.375976562 536.624023438 266.860351562 545.93359375 254.448242188 564.551757812 c 0
 242.036132812 580.06640625 235.830078125 601.788085938 235.830078125 620.40625 c 0
 235.830078125 635.920898438 238.93359375 648.333007812 245.139648438 660.745117188 c 0
 251.345703125 673.157226562 260.654296875 685.569335938 276.169921875 691.775390625 c 2
 459.248046875 803.484375 l 2
 465.454101562 806.587890625 471.66015625 809.690429688 477.866210938 809.690429688 c 0
 484.072265625 809.690429688 493.381835938 812.793945312 499.587890625 812.793945312 c 0
 521.309570312 812.793945312 543.030273438 806.587890625 564.751953125 794.17578125 c 0
 586.47265625 781.763671875 595.782226562 766.248046875 595.782226562 744.52734375 c 2
 595.782226562 -142.939453125 l 2
 595.782226562 -164.66015625 583.370117188 -183.278320312 561.6484375 -192.587890625 c 0
 539.927734375 -198.793945312 515.103515625 -205 490.278320312 -205 c 0
EndSplineSet
EndChar

StartChar: two
Encoding: 50 50 56
Width: 1024
Flags: H
LayerCount: 2
Fore
SplineSet
279.272460938 -205 m 2
 260.654296875 -205 238.93359375 -198.793945312 217.211914062 -186.381835938 c 0
 195.491210938 -173.969726562 183.079101562 -158.454101562 183.079101562 -136.733398438 c 2
 183.079101562 -0.2001953125 l 2
 183.079101562 37.0361328125 192.387695312 71.169921875 214.109375 102.200195312 c 0
 235.830078125 133.23046875 263.7578125 164.260742188 294.788085938 192.1875 c 0
 328.920898438 220.115234375 363.0546875 248.041992188 400.291015625 275.969726562 c 0
 437.52734375 303.896484375 474.763671875 328.721679688 505.793945312 356.6484375 c 0
 539.927734375 384.576171875 564.751953125 409.400390625 586.47265625 437.327148438 c 0
 608.194335938 465.254882812 617.502929688 493.181640625 617.502929688 521.109375 c 0
 617.502929688 536.624023438 614.400390625 552.139648438 608.194335938 567.654296875 c 0
 601.98828125 583.169921875 589.576171875 595.58203125 574.060546875 604.890625 c 0
 558.545898438 614.200195312 536.82421875 620.40625 512 620.40625 c 0
 484.072265625 620.40625 459.248046875 611.096679688 437.52734375 595.58203125 c 0
 415.805664062 580.06640625 406.497070312 552.139648438 406.497070312 514.903320312 c 0
 406.497070312 493.181640625 397.1875 474.563476562 375.466796875 459.048828125 c 0
 353.745117188 443.533203125 325.818359375 434.224609375 291.684570312 434.224609375 c 0
 263.7578125 434.224609375 242.036132812 443.533203125 223.41796875 459.048828125 c 0
 204.799804688 474.563476562 195.491210938 505.59375 195.491210938 549.036132812 c 0
 195.491210938 604.890625 211.005859375 654.5390625 242.036132812 694.87890625 c 0
 273.06640625 735.217773438 310.302734375 766.248046875 359.951171875 784.866210938 c 0
 409.599609375 806.587890625 459.248046875 815.896484375 512 815.896484375 c 0
 564.751953125 815.896484375 617.502929688 803.484375 667.151367188 781.763671875 c 0
 716.799804688 760.041992188 757.139648438 725.909179688 788.169921875 685.569335938 c 0
 819.200195312 642.126953125 834.71484375 589.375976562 834.71484375 527.315429688 c 0
 834.71484375 477.666992188 825.40625 431.12109375 803.684570312 390.782226562 c 0
 781.963867188 350.442382812 757.139648438 313.206054688 723.005859375 282.17578125 c 0
 691.975585938 251.145507812 654.739257812 220.115234375 620.606445312 195.291015625 c 0
 583.370117188 170.466796875 549.236328125 145.642578125 518.206054688 123.920898438 c 0
 487.17578125 102.200195312 459.248046875 80.478515625 437.52734375 61.8603515625 c 0
 415.805664062 40.1396484375 406.497070312 21.521484375 406.497070312 -0.2001953125 c 2
 406.497070312 -12.6123046875 l 1
 775.7578125 -12.6123046875 l 2
 794.375976562 -12.6123046875 809.890625 -21.9208984375 822.302734375 -40.5390625 c 0
 834.71484375 -59.1572265625 840.920898438 -80.87890625 840.920898438 -105.703125 c 0
 840.920898438 -130.52734375 834.71484375 -152.248046875 822.302734375 -173.969726562 c 0
 806.788085938 -192.587890625 791.272460938 -205 775.7578125 -205 c 2
 279.272460938 -205 l 2
EndSplineSet
EndChar

StartChar: three
Encoding: 51 51 57
Width: 1024
Flags: H
LayerCount: 2
Fore
SplineSet
502.690429688 -205 m 0
 443.733398438 -205 394.084960938 -195.690429688 350.642578125 -180.17578125 c 0
 307.200195312 -164.66015625 273.06640625 -142.939453125 248.2421875 -118.115234375 c 0
 223.41796875 -93.291015625 201.697265625 -62.2607421875 189.28515625 -34.3330078125 c 0
 176.873046875 -3.302734375 170.666992188 27.7275390625 170.666992188 55.654296875 c 0
 170.666992188 86.6845703125 176.873046875 108.40625 192.387695312 117.71484375 c 0
 211.005859375 130.126953125 235.830078125 136.333007812 273.06640625 136.333007812 c 0
 316.508789062 136.333007812 347.5390625 130.126953125 363.0546875 120.818359375 c 0
 378.569335938 111.508789062 384.775390625 92.890625 384.775390625 64.9638671875 c 0
 384.775390625 49.4482421875 387.87890625 33.93359375 394.084960938 24.6240234375 c 0
 400.291015625 15.3154296875 409.599609375 6.005859375 422.01171875 -0.2001953125 c 0
 434.423828125 -6.40625 446.8359375 -9.5087890625 462.3515625 -12.6123046875 c 0
 477.866210938 -15.71484375 493.381835938 -15.71484375 508.896484375 -15.71484375 c 0
 555.442382812 -15.71484375 589.576171875 -6.40625 608.194335938 12.2119140625 c 0
 626.8125 30.830078125 636.12109375 61.8603515625 636.12109375 108.40625 c 2
 636.12109375 136.333007812 l 2
 636.12109375 182.87890625 623.708984375 213.909179688 598.884765625 226.321289062 c 0
 574.060546875 238.733398438 543.030273438 248.041992188 502.690429688 248.041992188 c 0
 480.969726562 248.041992188 462.3515625 257.3515625 453.041992188 272.866210938 c 0
 443.733398438 291.484375 440.629882812 310.103515625 440.629882812 328.721679688 c 0
 440.629882812 350.442382812 443.733398438 369.060546875 453.041992188 387.678710938 c 0
 462.3515625 406.296875 477.866210938 412.502929688 502.690429688 412.502929688 c 0
 521.309570312 412.502929688 536.82421875 415.606445312 555.442382812 418.708984375 c 0
 570.958007812 421.8125 586.47265625 434.224609375 595.782226562 449.739257812 c 0
 605.090820312 468.357421875 611.296875 493.181640625 611.296875 530.41796875 c 0
 611.296875 570.7578125 601.98828125 598.684570312 580.266601562 611.096679688 c 0
 561.6484375 626.612304688 536.82421875 632.818359375 508.896484375 632.818359375 c 0
 493.381835938 632.818359375 477.866210938 632.818359375 465.454101562 629.71484375 c 0
 453.041992188 626.612304688 440.629882812 623.508789062 431.321289062 617.302734375 c 0
 422.01171875 611.096679688 415.805664062 604.890625 412.703125 595.58203125 c 0
 409.599609375 586.272460938 406.497070312 576.963867188 406.497070312 561.448242188 c 0
 406.497070312 539.727539062 400.291015625 518.005859375 387.87890625 505.59375 c 0
 375.466796875 490.079101562 347.5390625 483.873046875 307.200195312 483.873046875 c 0
 273.06640625 483.873046875 248.2421875 486.975585938 232.727539062 490.079101562 c 0
 217.211914062 496.28515625 207.903320312 505.59375 201.697265625 518.005859375 c 0
 195.491210938 530.41796875 195.491210938 549.036132812 195.491210938 570.7578125 c 0
 195.491210938 598.684570312 201.697265625 626.612304688 211.005859375 654.5390625 c 0
 220.315429688 682.466796875 238.93359375 710.393554688 263.7578125 735.217773438 c 0
 288.58203125 760.041992188 319.612304688 781.763671875 363.0546875 794.17578125 c 0
 400.291015625 809.690429688 449.939453125 819 508.896484375 819 c 0
 567.854492188 819 620.606445312 809.690429688 667.151367188 794.17578125 c 0
 713.697265625 778.66015625 750.93359375 750.733398438 775.7578125 716.599609375 c 0
 803.684570312 679.36328125 816.096679688 629.71484375 816.096679688 567.654296875 c 0
 816.096679688 518.005859375 806.788085938 471.4609375 788.169921875 428.018554688 c 0
 772.654296875 384.576171875 744.727539062 353.545898438 710.59375 338.030273438 c 1
 750.93359375 322.515625 785.06640625 300.793945312 812.994140625 266.66015625 c 0
 840.920898438 235.629882812 853.333007812 189.084960938 853.333007812 133.23046875 c 2
 853.333007812 108.40625 l 2
 853.333007812 33.93359375 837.818359375 -28.126953125 806.788085938 -74.6728515625 c 0
 775.7578125 -121.217773438 732.315429688 -152.248046875 679.563476562 -173.969726562 c 0
 626.8125 -195.690429688 567.854492188 -205 502.690429688 -205 c 0
EndSplineSet
EndChar

StartChar: four
Encoding: 52 52 58
Width: 1024
Flags: H
LayerCount: 2
Fore
SplineSet
648.533203125 -205 m 0
 620.606445312 -205 595.782226562 -198.793945312 574.060546875 -189.484375 c 0
 552.33984375 -177.072265625 539.927734375 -161.557617188 539.927734375 -139.8359375 c 2
 539.927734375 9.109375 l 1
 211.005859375 9.109375 l 2
 189.28515625 9.109375 173.76953125 15.3154296875 158.254882812 27.7275390625 c 0
 142.739257812 40.1396484375 136.533203125 58.7578125 136.533203125 83.58203125 c 0
 136.533203125 89.7880859375 136.533203125 95.994140625 139.63671875 102.200195312 c 0
 142.739257812 108.40625 142.739257812 117.71484375 148.9453125 123.920898438 c 2
 474.763671875 760.041992188 l 2
 484.072265625 781.763671875 499.587890625 794.17578125 515.103515625 803.484375 c 0
 530.618164062 812.793945312 549.236328125 815.896484375 564.751953125 815.896484375 c 0
 577.1640625 815.896484375 592.678710938 812.793945312 608.194335938 806.587890625 c 0
 623.708984375 800.381835938 639.224609375 791.072265625 651.63671875 778.66015625 c 0
 664.048828125 766.248046875 670.254882812 750.733398438 670.254882812 735.217773438 c 0
 670.254882812 729.01171875 667.151367188 719.703125 664.048828125 707.291015625 c 2
 415.805664062 210.805664062 l 1
 536.82421875 210.805664062 l 1
 536.82421875 310.103515625 l 2
 536.82421875 334.927734375 549.236328125 350.442382812 570.958007812 359.751953125 c 0
 592.678710938 369.060546875 617.502929688 375.266601562 645.430664062 375.266601562 c 0
 673.357421875 375.266601562 698.181640625 369.060546875 719.903320312 359.751953125 c 0
 741.624023438 350.442382812 754.036132812 331.82421875 754.036132812 310.103515625 c 2
 754.036132812 210.805664062 l 1
 812.994140625 210.805664062 l 2
 834.71484375 210.805664062 853.333007812 201.497070312 862.642578125 179.775390625 c 0
 875.0546875 158.0546875 878.157226562 136.333007812 878.157226562 111.508789062 c 0
 878.157226562 86.6845703125 871.951171875 61.8603515625 856.436523438 43.2421875 c 0
 840.920898438 21.521484375 828.508789062 12.2119140625 809.890625 12.2119140625 c 2
 750.93359375 12.2119140625 l 1
 750.93359375 -136.733398438 l 2
 750.93359375 -158.454101562 738.521484375 -177.072265625 716.799804688 -186.381835938 c 0
 701.28515625 -198.793945312 676.4609375 -205 648.533203125 -205 c 0
EndSplineSet
EndChar

StartChar: five
Encoding: 53 53 59
Width: 1024
Flags: H
LayerCount: 2
Fore
SplineSet
515.103515625 -205 m 0
 440.629882812 -205 378.569335938 -192.587890625 325.818359375 -167.763671875 c 0
 276.169921875 -142.939453125 235.830078125 -111.909179688 211.005859375 -71.5693359375 c 0
 186.181640625 -31.23046875 170.666992188 9.109375 170.666992188 52.5517578125 c 0
 170.666992188 89.7880859375 179.975585938 114.612304688 198.59375 130.126953125 c 0
 217.211914062 142.5390625 245.139648438 148.745117188 279.272460938 148.745117188 c 0
 325.818359375 148.745117188 356.848632812 139.436523438 369.260742188 123.920898438 c 0
 381.672851562 108.40625 387.87890625 89.7880859375 387.87890625 68.06640625 c 0
 387.87890625 49.4482421875 394.084960938 33.93359375 403.393554688 21.521484375 c 0
 412.703125 9.109375 428.217773438 -0.2001953125 446.8359375 -6.40625 c 0
 465.454101562 -12.6123046875 487.17578125 -15.71484375 508.896484375 -15.71484375 c 0
 549.236328125 -15.71484375 580.266601562 -6.40625 601.98828125 15.3154296875 c 0
 623.708984375 37.0361328125 636.12109375 68.06640625 636.12109375 114.612304688 c 2
 636.12109375 139.436523438 l 2
 636.12109375 185.981445312 623.708984375 220.115234375 601.98828125 241.8359375 c 0
 580.266601562 263.557617188 549.236328125 275.969726562 512 275.969726562 c 2
 300.994140625 275.969726562 l 2
 269.963867188 275.969726562 248.2421875 282.17578125 235.830078125 297.690429688 c 0
 223.41796875 313.206054688 217.211914062 334.927734375 217.211914062 359.751953125 c 0
 217.211914062 365.958007812 217.211914062 375.266601562 217.211914062 378.370117188 c 0
 217.211914062 384.576171875 217.211914062 390.782226562 220.315429688 396.98828125 c 2
 257.551757812 750.733398438 l 2
 260.654296875 772.454101562 263.7578125 787.969726562 269.963867188 800.381835938 c 0
 276.169921875 812.793945312 285.478515625 819 297.890625 819 c 2
 741.624023438 819 l 2
 760.2421875 819 775.7578125 806.587890625 788.169921875 787.969726562 c 0
 797.478515625 769.3515625 803.684570312 747.629882812 803.684570312 722.805664062 c 0
 803.684570312 701.084960938 797.478515625 679.36328125 788.169921875 657.642578125 c 0
 778.860351562 639.024414062 763.345703125 626.612304688 741.624023438 626.612304688 c 2
 434.423828125 626.612304688 l 1
 422.01171875 440.430664062 l 1
 512 440.430664062 l 2
 577.1640625 440.430664062 633.018554688 431.12109375 685.76953125 412.502929688 c 0
 738.521484375 393.884765625 778.860351562 359.751953125 806.788085938 316.309570312 c 0
 837.818359375 272.866210938 853.333007812 213.909179688 853.333007812 139.436523438 c 2
 853.333007812 114.612304688 l 2
 853.333007812 37.0361328125 837.818359375 -25.0244140625 806.788085938 -71.5693359375 c 0
 775.7578125 -118.115234375 735.41796875 -152.248046875 685.76953125 -173.969726562 c 0
 633.018554688 -195.690429688 577.1640625 -205 515.103515625 -205 c 0
EndSplineSet
EndChar

StartChar: six
Encoding: 54 54 60
Width: 1024
Flags: H
LayerCount: 2
Fore
SplineSet
512 -205 m 0
 446.8359375 -205 390.981445312 -195.690429688 338.23046875 -173.969726562 c 0
 285.478515625 -152.248046875 245.139648438 -118.115234375 214.109375 -68.466796875 c 0
 183.079101562 -18.818359375 167.563476562 43.2421875 167.563476562 123.920898438 c 2
 167.563476562 490.079101562 l 2
 170.666992188 570.7578125 186.181640625 632.818359375 217.211914062 682.466796875 c 0
 248.2421875 732.115234375 291.684570312 766.248046875 344.436523438 787.969726562 c 0
 397.1875 809.690429688 456.145507812 819 524.412109375 819 c 0
 583.370117188 819 633.018554688 809.690429688 673.357421875 794.17578125 c 0
 713.697265625 778.66015625 747.830078125 756.939453125 775.7578125 732.115234375 c 0
 803.684570312 707.291015625 822.302734375 679.36328125 834.71484375 648.333007812 c 0
 847.126953125 617.302734375 853.333007812 589.375976562 853.333007812 558.345703125 c 0
 853.333007812 524.211914062 844.024414062 502.491210938 828.508789062 490.079101562 c 0
 812.994140625 477.666992188 785.06640625 471.4609375 750.93359375 471.4609375 c 0
 719.903320312 471.4609375 695.079101562 477.666992188 673.357421875 486.975585938 c 0
 651.63671875 496.28515625 639.224609375 518.005859375 639.224609375 549.036132812 c 0
 639.224609375 567.654296875 633.018554688 580.06640625 623.708984375 592.478515625 c 0
 611.296875 604.890625 598.884765625 614.200195312 580.266601562 620.40625 c 0
 561.6484375 626.612304688 543.030273438 629.71484375 521.309570312 629.71484375 c 0
 480.969726562 629.71484375 449.939453125 617.302734375 425.115234375 595.58203125 c 0
 403.393554688 573.860351562 390.981445312 536.624023438 390.981445312 490.079101562 c 2
 390.981445312 365.958007812 l 1
 412.703125 390.782226562 440.629882812 406.296875 468.557617188 415.606445312 c 0
 499.587890625 424.915039062 530.618164062 428.018554688 564.751953125 428.018554688 c 0
 617.502929688 428.018554688 667.151367188 418.708984375 710.59375 400.090820312 c 0
 754.036132812 381.47265625 791.272460938 353.545898438 816.096679688 310.103515625 c 0
 844.024414062 266.66015625 856.436523438 207.703125 856.436523438 136.333007812 c 2
 856.436523438 123.920898438 l 2
 856.436523438 43.2421875 840.920898438 -18.818359375 809.890625 -68.466796875 c 0
 778.860351562 -118.115234375 738.521484375 -152.248046875 688.873046875 -173.969726562 c 0
 633.018554688 -195.690429688 577.1640625 -205 512 -205 c 0
512 -31.23046875 m 0
 552.33984375 -31.23046875 580.266601562 -18.818359375 601.98828125 2.9033203125 c 0
 623.708984375 24.6240234375 636.12109375 58.7578125 636.12109375 108.40625 c 2
 636.12109375 120.818359375 l 2
 636.12109375 170.466796875 623.708984375 207.703125 601.98828125 229.423828125 c 0
 580.266601562 251.145507812 549.236328125 260.454101562 508.896484375 260.454101562 c 0
 471.66015625 260.454101562 440.629882812 251.145507812 418.909179688 232.52734375 c 0
 397.1875 213.909179688 384.775390625 179.775390625 384.775390625 133.23046875 c 2
 384.775390625 108.40625 l 2
 384.775390625 58.7578125 397.1875 24.6240234375 418.909179688 2.9033203125 c 0
 443.733398438 -18.818359375 474.763671875 -31.23046875 512 -31.23046875 c 0
EndSplineSet
EndChar

StartChar: seven
Encoding: 55 55 61
Width: 1024
Flags: H
LayerCount: 2
Fore
SplineSet
422.01171875 -205 m 0
 400.291015625 -205 378.569335938 -198.793945312 356.848632812 -189.484375 c 0
 335.126953125 -180.17578125 319.612304688 -167.763671875 304.096679688 -149.145507812 c 0
 291.684570312 -133.629882812 285.478515625 -115.01171875 285.478515625 -93.291015625 c 0
 285.478515625 -80.87890625 288.58203125 -68.466796875 294.788085938 -56.0546875 c 2
 636.12109375 536.624023438 l 1
 636.12109375 629.71484375 l 1
 387.87890625 629.71484375 l 1
 387.87890625 536.624023438 l 2
 387.87890625 518.005859375 375.466796875 502.491210938 353.745117188 490.079101562 c 0
 332.024414062 477.666992188 307.200195312 471.4609375 276.169921875 471.4609375 c 0
 245.139648438 471.4609375 223.41796875 477.666992188 201.697265625 490.079101562 c 0
 179.975585938 502.491210938 170.666992188 518.005859375 170.666992188 536.624023438 c 2
 170.666992188 750.733398438 l 2
 170.666992188 766.248046875 179.975585938 781.763671875 201.697265625 797.278320312 c 0
 220.315429688 809.690429688 242.036132812 819 266.860351562 819 c 2
 760.2421875 819 l 2
 781.963867188 819 803.684570312 812.793945312 822.302734375 797.278320312 c 0
 844.024414062 784.866210938 853.333007812 769.3515625 853.333007812 750.733398438 c 2
 853.333007812 576.963867188 l 2
 853.333007812 558.345703125 850.23046875 539.727539062 840.920898438 514.903320312 c 0
 831.612304688 490.079101562 822.302734375 468.357421875 809.890625 446.63671875 c 2
 484.072265625 -177.072265625 l 2
 474.763671875 -195.690429688 453.041992188 -205 422.01171875 -205 c 0
EndSplineSet
EndChar

StartChar: eight
Encoding: 56 56 62
Width: 1024
Flags: H
LayerCount: 2
Fore
SplineSet
512 -205 m 0
 446.8359375 -205 390.981445312 -195.690429688 338.23046875 -177.072265625 c 0
 285.478515625 -158.454101562 245.139648438 -127.423828125 214.109375 -83.9814453125 c 0
 183.079101562 -40.5390625 167.563476562 12.2119140625 167.563476562 83.58203125 c 2
 167.563476562 99.0966796875 l 2
 167.563476562 170.466796875 183.079101562 226.321289062 214.109375 269.763671875 c 0
 245.139648438 313.206054688 288.58203125 341.133789062 338.23046875 359.751953125 c 1
 297.890625 372.1640625 263.7578125 396.98828125 238.93359375 434.224609375 c 0
 217.211914062 468.357421875 204.799804688 514.903320312 204.799804688 570.7578125 c 0
 204.799804688 629.71484375 217.211914062 676.260742188 245.139648438 713.497070312 c 0
 273.06640625 750.733398438 307.200195312 775.557617188 353.745117188 794.17578125 c 0
 400.291015625 809.690429688 453.041992188 819 512 819 c 0
 570.958007812 819 623.708984375 809.690429688 670.254882812 794.17578125 c 0
 716.799804688 775.557617188 750.93359375 750.733398438 778.860351562 713.497070312 c 0
 806.788085938 676.260742188 819.200195312 629.71484375 819.200195312 570.7578125 c 0
 819.200195312 511.799804688 806.788085938 468.357421875 781.963867188 431.12109375 c 0
 757.139648438 396.98828125 723.005859375 372.1640625 682.666992188 356.6484375 c 1
 735.41796875 338.030273438 775.7578125 310.103515625 806.788085938 266.66015625 c 0
 837.818359375 223.217773438 853.333007812 167.36328125 853.333007812 95.994140625 c 2
 853.333007812 80.478515625 l 2
 853.333007812 12.2119140625 837.818359375 -43.642578125 806.788085938 -87.0849609375 c 0
 775.7578125 -130.52734375 735.41796875 -158.454101562 685.76953125 -180.17578125 c 0
 633.018554688 -195.690429688 577.1640625 -205 512 -205 c 0
512 -31.23046875 m 0
 552.33984375 -31.23046875 583.370117188 -18.818359375 605.090820312 2.9033203125 c 0
 626.8125 24.6240234375 636.12109375 61.8603515625 636.12109375 108.40625 c 2
 636.12109375 139.436523438 l 2
 636.12109375 185.981445312 623.708984375 217.01171875 601.98828125 238.733398438 c 0
 580.266601562 260.454101562 549.236328125 269.763671875 512 269.763671875 c 0
 474.763671875 269.763671875 443.733398438 260.454101562 418.909179688 238.733398438 c 0
 397.1875 217.01171875 384.775390625 182.87890625 384.775390625 139.436523438 c 2
 384.775390625 108.40625 l 2
 384.775390625 58.7578125 397.1875 24.6240234375 418.909179688 2.9033203125 c 0
 443.733398438 -21.9208984375 474.763671875 -31.23046875 512 -31.23046875 c 0
512 443.533203125 m 0
 543.030273438 443.533203125 567.854492188 449.739257812 586.47265625 465.254882812 c 0
 605.090820312 480.76953125 611.296875 505.59375 611.296875 542.830078125 c 0
 611.296875 576.963867188 601.98828125 604.890625 586.47265625 620.40625 c 0
 567.854492188 635.920898438 546.133789062 645.23046875 512 645.23046875 c 0
 480.969726562 645.23046875 456.145507812 635.920898438 437.52734375 620.40625 c 0
 418.909179688 604.890625 412.703125 576.963867188 412.703125 542.830078125 c 0
 412.703125 505.59375 422.01171875 480.76953125 437.52734375 465.254882812 c 0
 456.145507812 449.739257812 480.969726562 443.533203125 512 443.533203125 c 0
EndSplineSet
EndChar

StartChar: nine
Encoding: 57 57 63
Width: 1024
Flags: H
LayerCount: 2
Fore
SplineSet
499.587890625 -205 m 0
 440.629882812 -205 390.981445312 -195.690429688 350.642578125 -180.17578125 c 0
 310.302734375 -164.66015625 276.169921875 -142.939453125 248.2421875 -118.115234375 c 0
 220.315429688 -93.291015625 201.697265625 -65.36328125 189.28515625 -34.3330078125 c 0
 176.873046875 -3.302734375 170.666992188 24.6240234375 170.666992188 55.654296875 c 0
 170.666992188 89.7880859375 179.975585938 111.508789062 195.491210938 123.920898438 c 0
 211.005859375 136.333007812 238.93359375 142.5390625 273.06640625 142.5390625 c 0
 304.096679688 142.5390625 328.920898438 136.333007812 350.642578125 127.024414062 c 0
 372.36328125 117.71484375 384.775390625 95.994140625 384.775390625 61.8603515625 c 0
 384.775390625 43.2421875 390.981445312 30.830078125 400.291015625 18.41796875 c 0
 412.703125 6.005859375 425.115234375 -3.302734375 443.733398438 -9.5087890625 c 0
 462.3515625 -15.71484375 480.969726562 -18.818359375 502.690429688 -18.818359375 c 0
 543.030273438 -18.818359375 574.060546875 -6.40625 598.884765625 15.3154296875 c 0
 623.708984375 37.0361328125 633.018554688 74.2724609375 633.018554688 120.818359375 c 2
 633.018554688 244.939453125 l 1
 611.296875 220.115234375 583.370117188 204.599609375 555.442382812 195.291015625 c 0
 524.412109375 185.981445312 493.381835938 182.87890625 459.248046875 182.87890625 c 0
 406.497070312 182.87890625 356.848632812 192.1875 313.40625 210.805664062 c 0
 273.06640625 229.423828125 235.830078125 260.454101562 211.005859375 303.896484375 c 0
 183.079101562 347.33984375 170.666992188 406.296875 170.666992188 477.666992188 c 2
 170.666992188 490.079101562 l 2
 170.666992188 570.7578125 186.181640625 632.818359375 217.211914062 682.466796875 c 0
 248.2421875 732.115234375 288.58203125 766.248046875 338.23046875 787.969726562 c 0
 390.981445312 809.690429688 446.8359375 819 512 819 c 0
 577.1640625 819 633.018554688 809.690429688 685.76953125 787.969726562 c 0
 738.521484375 766.248046875 778.860351562 732.115234375 809.890625 682.466796875 c 0
 840.920898438 632.818359375 856.436523438 570.7578125 856.436523438 490.079101562 c 2
 856.436523438 120.818359375 l 2
 856.436523438 40.1396484375 840.920898438 -21.9208984375 809.890625 -71.5693359375 c 0
 778.860351562 -121.217773438 735.41796875 -155.3515625 682.666992188 -177.072265625 c 0
 626.8125 -195.690429688 564.751953125 -205 499.587890625 -205 c 0
512 353.545898438 m 0
 549.236328125 353.545898438 580.266601562 362.854492188 601.98828125 384.576171875 c 0
 623.708984375 403.194335938 636.12109375 437.327148438 636.12109375 483.873046875 c 2
 636.12109375 508.697265625 l 2
 636.12109375 558.345703125 623.708984375 592.478515625 601.98828125 614.200195312 c 0
 580.266601562 635.920898438 549.236328125 648.333007812 508.896484375 648.333007812 c 0
 468.557617188 648.333007812 440.629882812 635.920898438 418.909179688 614.200195312 c 0
 397.1875 592.478515625 384.775390625 558.345703125 384.775390625 508.697265625 c 2
 384.775390625 496.28515625 l 2
 384.775390625 446.63671875 397.1875 409.400390625 418.909179688 387.678710938 c 0
 440.629882812 362.854492188 471.66015625 353.545898438 512 353.545898438 c 0
EndSplineSet
EndChar
